<?xml version="1.0" encoding="utf-8"?>
<!-- Generator: Adobe Illustrator 22.0.1, SVG Export Plug-In . SVG Version: 6.00 Build 0)  -->
<svg version="1.1" id="Layer_1" xmlns="http://www.w3.org/2000/svg" xmlns:xlink="http://www.w3.org/1999/xlink" x="0px" y="0px"
	 viewBox="0 0 394 456" style="enable-background:new 0 0 394 456;" xml:space="preserve">
<style type="text/css">
	.st0{fill:#FFFFFF;}
	.st1{fill:#ED3D3F;}
	.st2{fill:#F99DA2;}
	.st3{fill:#FBF0FF;}
</style>
<g id="Page">
	<g id="Page2">
		<g id="Bia2">
			<polygon class="st0" points="293.1,4.2 365,310.9 308.5,402 93,452.6 3.7,72.1 			"/>
			<path class="st1" d="M93,456.1c-1.6,0-3.1-1.1-3.5-2.7L0.3,72.9C0.1,72,0.2,71,0.7,70.2c0.5-0.8,1.3-1.4,2.2-1.6L292.2,0.8
				c0.9-0.2,1.9-0.1,2.7,0.4c0.8,0.5,1.4,1.3,1.6,2.2l71.9,306.7c0.2,0.9,0.1,1.9-0.4,2.7l-56.5,91.1c-0.5,0.8-1.3,1.4-2.2,1.6
				L93.8,456C93.5,456.1,93.2,456.1,93,456.1z M8,74.8l87.6,373.6l210.6-49.4l55-88.6L290.4,8.5L8,74.8z"/>
		</g>
		<g>
			<path class="st2" d="M33.3,109.1c-0.4,0-0.8-0.3-0.9-0.7c-0.1-0.5,0.2-1,0.7-1.1l249.3-58.5c0.5-0.1,1,0.2,1.1,0.7
				c0.1,0.5-0.2,1-0.7,1.1L33.5,109.1C33.5,109.1,33.4,109.1,33.3,109.1z"/>
			<path class="st2" d="M38.3,130.5c-0.4,0-0.8-0.3-0.9-0.7c-0.1-0.5,0.2-1,0.7-1.1l249.3-58.5c0.5-0.1,1,0.2,1.1,0.7
				c0.1,0.5-0.2,1-0.7,1.1L38.5,130.4C38.5,130.4,38.4,130.5,38.3,130.5z"/>
			<path class="st2" d="M43.3,151.8c-0.4,0-0.8-0.3-0.9-0.7c-0.1-0.5,0.2-1,0.7-1.1l249.3-58.5c0.5-0.1,1,0.2,1.1,0.7
				c0.1,0.5-0.2,1-0.7,1.1L43.5,151.8C43.5,151.8,43.4,151.8,43.3,151.8z"/>
			<path class="st2" d="M48.4,173.1c-0.4,0-0.8-0.3-0.9-0.7c-0.1-0.5,0.2-1,0.7-1.1l249.3-58.5c0.5-0.1,1,0.2,1.1,0.7
				c0.1,0.5-0.2,1-0.7,1.1L48.6,173.1C48.5,173.1,48.4,173.1,48.4,173.1z"/>
			<path class="st2" d="M53.4,194.5c-0.4,0-0.8-0.3-0.9-0.7c-0.1-0.5,0.2-1,0.7-1.1l249.3-58.5c0.5-0.1,1,0.2,1.1,0.7
				c0.1,0.5-0.2,1-0.7,1.1L53.6,194.5C53.5,194.5,53.4,194.5,53.4,194.5z"/>
			<path class="st2" d="M58.4,215.8c-0.4,0-0.8-0.3-0.9-0.7c-0.1-0.5,0.2-1,0.7-1.1l249.3-58.5c0.5-0.1,1,0.2,1.1,0.7
				c0.1,0.5-0.2,1-0.7,1.1L58.6,215.8C58.5,215.8,58.4,215.8,58.4,215.8z"/>
			<path class="st2" d="M63.4,237.2c-0.4,0-0.8-0.3-0.9-0.7c-0.1-0.5,0.2-1,0.7-1.1L312.4,177c0.5-0.1,1,0.2,1.1,0.7
				c0.1,0.5-0.2,1-0.7,1.1L63.6,237.2C63.5,237.2,63.4,237.2,63.4,237.2z"/>
			<path class="st2" d="M68.4,258.5c-0.4,0-0.8-0.3-0.9-0.7c-0.1-0.5,0.2-1,0.7-1.1l249.3-58.5c0.5-0.1,1,0.2,1.1,0.7
				c0.1,0.5-0.2,1-0.7,1.1L68.6,258.5C68.5,258.5,68.4,258.5,68.4,258.5z"/>
			<path class="st2" d="M73.4,279.9c-0.4,0-0.8-0.3-0.9-0.7c-0.1-0.5,0.2-1,0.7-1.1l249.3-58.5c0.5-0.1,1,0.2,1.1,0.7
				c0.1,0.5-0.2,1-0.7,1.1L73.6,279.9C73.5,279.9,73.5,279.9,73.4,279.9z"/>
			<path class="st2" d="M78.4,301.2c-0.4,0-0.8-0.3-0.9-0.7c-0.1-0.5,0.2-1,0.7-1.1L327.5,241c0.5-0.1,1,0.2,1.1,0.7
				c0.1,0.5-0.2,1-0.7,1.1L78.6,301.2C78.5,301.2,78.5,301.2,78.4,301.2z"/>
			<path class="st2" d="M83.4,322.6c-0.4,0-0.8-0.3-0.9-0.7c-0.1-0.5,0.2-1,0.7-1.1l249.3-58.5c0.5-0.1,1,0.2,1.1,0.7
				c0.1,0.5-0.2,1-0.7,1.1L83.6,322.6C83.5,322.6,83.5,322.6,83.4,322.6z"/>
			<path class="st2" d="M88.4,343.9c-0.4,0-0.8-0.3-0.9-0.7c-0.1-0.5,0.2-1,0.7-1.1l249.3-58.5c0.5-0.1,1,0.2,1.1,0.7
				c0.1,0.5-0.2,1-0.7,1.1L88.6,343.9C88.5,343.9,88.5,343.9,88.4,343.9z"/>
			<path class="st2" d="M93.4,365.3c-0.4,0-0.8-0.3-0.9-0.7c-0.1-0.5,0.2-1,0.7-1.1l249.3-58.5c0.5-0.1,1,0.2,1.1,0.7
				c0.1,0.5-0.2,1-0.7,1.1L93.6,365.3C93.6,365.3,93.5,365.3,93.4,365.3z"/>
			<path class="st2" d="M98.4,386.6c-0.4,0-0.8-0.3-0.9-0.7c-0.1-0.5,0.2-1,0.7-1.1L293.7,339c0.5-0.1,1,0.2,1.1,0.7
				c0.1,0.5-0.2,1-0.7,1.1L98.6,386.6C98.6,386.6,98.5,386.6,98.4,386.6z"/>
			<path class="st2" d="M103.4,408c-0.4,0-0.8-0.3-0.9-0.7c-0.1-0.5,0.2-1,0.7-1.1l195.5-45.9c0.5-0.1,1,0.2,1.1,0.7
				c0.1,0.5-0.2,1-0.7,1.1L103.6,408C103.6,408,103.5,408,103.4,408z"/>
		</g>
		<g>
			<path class="st2" d="M145.4,419.6c-0.4,0-0.8-0.3-0.9-0.7L65.5,81.8c-0.1-0.5,0.2-1,0.7-1.1c0.5-0.1,1,0.2,1.1,0.7l79.1,337.1
				c0.1,0.5-0.2,1-0.7,1.1C145.6,419.6,145.5,419.6,145.4,419.6z"/>
			<path class="st2" d="M76.5,264c-3.7,0-7.1-2.6-8-6.4c-1-4.4,1.7-8.9,6.2-9.9c4.4-1,8.9,1.7,9.9,6.2l0,0c1,4.4-1.7,8.9-6.2,9.9
				C77.8,263.9,77.1,264,76.5,264z M76.5,249.3c-0.5,0-1,0.1-1.5,0.2c-3.5,0.8-5.6,4.3-4.8,7.8c0.8,3.5,4.3,5.6,7.8,4.8
				c1.7-0.4,3.1-1.4,4-2.9c0.9-1.5,1.2-3.2,0.8-4.9l0,0C82.1,251.3,79.5,249.3,76.5,249.3z"/>
			<path class="st2" d="M49.9,150.4c-1.5,0-3-0.4-4.3-1.2c-1.9-1.2-3.2-3-3.7-5.1c-0.5-2.1-0.1-4.4,1-6.2c1.2-1.9,3-3.2,5.1-3.7
				c2.2-0.5,4.4-0.1,6.2,1c1.9,1.2,3.2,3,3.7,5.1c0.5,2.1,0.1,4.4-1,6.2c-1.2,1.9-3,3.2-5.1,3.7C51.1,150.3,50.5,150.4,49.9,150.4z
				 M49.9,135.7c-0.5,0-1,0.1-1.5,0.2c-1.7,0.4-3.1,1.4-4,2.9c-0.9,1.5-1.2,3.2-0.8,4.9c0.4,1.7,1.4,3.1,2.9,4
				c1.5,0.9,3.2,1.2,4.9,0.8c1.7-0.4,3.1-1.4,4-2.9c0.9-1.5,1.2-3.2,0.8-4.9c-0.4-1.7-1.4-3.1-2.9-4C52.2,136,51.1,135.7,49.9,135.7
				z"/>
		</g>
	</g>
	<g id="Page1">
		<g id="Bia">
			<polygon class="st0" points="390.3,40.4 390.3,355.4 314.4,431.2 93.1,431.2 93.1,40.4 			"/>
			<path class="st1" d="M314.4,434.7H93.1c-2,0-3.6-1.6-3.6-3.6V40.4c0-2,1.6-3.6,3.6-3.6h297.2c2,0,3.6,1.6,3.6,3.6v315
				c0,0.9-0.4,1.8-1,2.5L317,433.7C316.3,434.4,315.4,434.7,314.4,434.7z M96.6,427.6H313l73.7-73.7v-310H96.6V427.6z"/>
		</g>
		<g id="line">
			<path class="st2" d="M369.7,83.2h-256c-0.5,0-0.9-0.4-0.9-0.9s0.4-0.9,0.9-0.9h256c0.5,0,0.9,0.4,0.9,0.9S370.2,83.2,369.7,83.2z
				"/>
			<path class="st2" d="M369.7,105.1h-256c-0.5,0-0.9-0.4-0.9-0.9c0-0.5,0.4-0.9,0.9-0.9h256c0.5,0,0.9,0.4,0.9,0.9
				C370.6,104.7,370.2,105.1,369.7,105.1z"/>
			<path class="st2" d="M369.7,127h-256c-0.5,0-0.9-0.4-0.9-0.9c0-0.5,0.4-0.9,0.9-0.9h256c0.5,0,0.9,0.4,0.9,0.9
				C370.6,126.6,370.2,127,369.7,127z"/>
			<path class="st2" d="M369.7,149h-256c-0.5,0-0.9-0.4-0.9-0.9c0-0.5,0.4-0.9,0.9-0.9h256c0.5,0,0.9,0.4,0.9,0.9
				C370.6,148.6,370.2,149,369.7,149z"/>
			<path class="st2" d="M369.7,170.9h-256c-0.5,0-0.9-0.4-0.9-0.9c0-0.5,0.4-0.9,0.9-0.9h256c0.5,0,0.9,0.4,0.9,0.9
				C370.6,170.5,370.2,170.9,369.7,170.9z"/>
			<path class="st2" d="M369.7,192.8h-256c-0.5,0-0.9-0.4-0.9-0.9c0-0.5,0.4-0.9,0.9-0.9h256c0.5,0,0.9,0.4,0.9,0.9
				C370.6,192.4,370.2,192.8,369.7,192.8z"/>
			<path class="st2" d="M369.7,214.7h-256c-0.5,0-0.9-0.4-0.9-0.9c0-0.5,0.4-0.9,0.9-0.9h256c0.5,0,0.9,0.4,0.9,0.9
				C370.6,214.3,370.2,214.7,369.7,214.7z"/>
			<path class="st2" d="M369.7,236.7h-256c-0.5,0-0.9-0.4-0.9-0.9c0-0.5,0.4-0.9,0.9-0.9h256c0.5,0,0.9,0.4,0.9,0.9
				C370.6,236.3,370.2,236.7,369.7,236.7z"/>
			<path class="st2" d="M369.7,258.6h-256c-0.5,0-0.9-0.4-0.9-0.9s0.4-0.9,0.9-0.9h256c0.5,0,0.9,0.4,0.9,0.9
				S370.2,258.6,369.7,258.6z"/>
			<path class="st2" d="M369.7,280.5h-256c-0.5,0-0.9-0.4-0.9-0.9c0-0.5,0.4-0.9,0.9-0.9h256c0.5,0,0.9,0.4,0.9,0.9
				C370.6,280.1,370.2,280.5,369.7,280.5z"/>
			<path class="st2" d="M369.7,302.5h-256c-0.5,0-0.9-0.4-0.9-0.9c0-0.5,0.4-0.9,0.9-0.9h256c0.5,0,0.9,0.4,0.9,0.9
				C370.6,302.1,370.2,302.5,369.7,302.5z"/>
			<path class="st2" d="M369.7,324.4h-256c-0.5,0-0.9-0.4-0.9-0.9c0-0.5,0.4-0.9,0.9-0.9h256c0.5,0,0.9,0.4,0.9,0.9
				C370.6,324,370.2,324.4,369.7,324.4z"/>
			<path class="st2" d="M369.7,346.3h-256c-0.5,0-0.9-0.4-0.9-0.9c0-0.5,0.4-0.9,0.9-0.9h256c0.5,0,0.9,0.4,0.9,0.9
				C370.6,345.9,370.2,346.3,369.7,346.3z"/>
			<path class="st2" d="M314.4,368.2H113.7c-0.5,0-0.9-0.4-0.9-0.9c0-0.5,0.4-0.9,0.9-0.9h200.8c0.5,0,0.9,0.4,0.9,0.9
				C315.3,367.8,314.9,368.2,314.4,368.2z"/>
			<path class="st2" d="M314.4,390.2H113.7c-0.5,0-0.9-0.4-0.9-0.9c0-0.5,0.4-0.9,0.9-0.9h200.8c0.5,0,0.9,0.4,0.9,0.9
				C315.3,389.8,314.9,390.2,314.4,390.2z"/>
		</g>
		<g id="Nhat">
			<path class="st2" d="M151.9,411.1c-0.5,0-0.9-0.4-0.9-0.9V63.9c0-0.5,0.4-0.9,0.9-0.9c0.5,0,0.9,0.4,0.9,0.9v346.3
				C152.8,410.7,152.4,411.1,151.9,411.1z"/>
			<path class="st2" d="M122,360.7c-4.6,0-8.3-3.7-8.3-8.3c0-4.6,3.7-8.3,8.3-8.3c4.6,0,8.3,3.7,8.3,8.3
				C130.3,357,126.6,360.7,122,360.7z M122,346c-3.6,0-6.5,2.9-6.5,6.5c0,3.6,2.9,6.5,6.5,6.5c3.6,0,6.5-2.9,6.5-6.5
				C128.5,348.9,125.6,346,122,346z"/>
			<path class="st2" d="M122,244c-4.6,0-8.3-3.7-8.3-8.3c0-4.6,3.7-8.3,8.3-8.3c4.6,0,8.3,3.7,8.3,8.3
				C130.3,240.3,126.6,244,122,244z M122,229.3c-3.6,0-6.5,2.9-6.5,6.5c0,3.6,2.9,6.5,6.5,6.5c3.6,0,6.5-2.9,6.5-6.5
				C128.5,232.2,125.6,229.3,122,229.3z"/>
			<path class="st2" d="M122,127.4c-4.6,0-8.3-3.7-8.3-8.3c0-4.6,3.7-8.3,8.3-8.3c4.6,0,8.3,3.7,8.3,8.3
				C130.3,123.7,126.6,127.4,122,127.4z M122,112.6c-3.6,0-6.5,2.9-6.5,6.5c0,3.6,2.9,6.5,6.5,6.5c3.6,0,6.5-2.9,6.5-6.5
				C128.5,115.5,125.6,112.6,122,112.6z"/>
		</g>
		<g id="Text">
			<g>
				<path class="st1" d="M148.7,210.5c-3.5,0-6.3-2.8-6.3-6.3v-6.3l37.9-70.3c0.9-1.6,3.7-3.4,5.5-3.4h4.8c3.5,0,6.3,2.8,6.3,6.3
					v106.1c0,3.5-2.8,6.3-6.3,6.3h-4.9c-3.5,0-6.3-2.8-6.3-6.3v-26.1H148.7z M179.4,164.5L163,193h16.2L179.4,164.5z"/>
				<path class="st1" d="M207.8,158.8c0-22.2,8.5-34.7,26.1-34.7c17.5,0,25.9,13,25.9,34.7V208c0,21.7-8.6,34.9-25.9,34.9
					c-17.5,0-26.1-12.7-26.1-34.9V158.8z M225.4,209.8c0,11.6,2.8,15.3,8.5,15.3c5.5,0,8.3-3.7,8.3-15.3v-52.7
					c0-11.5-2.8-15.2-8.3-15.2c-5.6,0-8.5,3.7-8.5,15.2V209.8z"/>
				<path class="st1" d="M279.9,210.5c-3.5,0-6.3-2.8-6.3-6.3v-6.3l37.9-70.3c0.9-1.6,3.7-3.4,5.5-3.4h4.8c3.5,0,6.3,2.8,6.3,6.3
					v106.1c0,3.5-2.8,6.3-6.3,6.3h-4.9c-3.5,0-6.3-2.8-6.3-6.3v-26.1H279.9z M310.6,164.5L294.2,193h16.2L310.6,164.5z"/>
			</g>
			<g>
				<path class="st1" d="M182.1,262c1.6,0,2.9,1.3,2.9,2.9v2.2c0,1.6-1.3,2.9-2.9,2.9h-12.4v15.2h10.2c1.6,0,2.9,1.3,2.9,2.9v2.2
					c0,1.6-1.3,2.9-2.9,2.9h-10.2v15.3h12.4c1.6,0,2.9,1.3,2.9,2.9v2.2c0,1.6-1.3,2.9-2.9,2.9h-17.4c-1.6,0-2.9-1.3-2.9-2.9v-48.6
					c0-1.6,1.3-2.9,2.9-2.9H182.1z"/>
				<path class="st1" d="M216.3,313.4c0,1.6-1.3,2.9-2.9,2.9h-2.3c-1.6,0-2.9-1.3-2.9-2.9v-13.5c0-4-2.3-6.3-6.2-6.3h-3.6v19.8
					c0,1.6-1.3,2.9-2.8,2.9h-2.3c-1.6,0-2.9-1.3-2.9-2.9v-48.6c0-1.6,1.3-2.9,2.9-2.9h10.2c9.9,0,13.4,5,13.4,15.8
					c0,5-0.9,9-3.4,11.5c-0.2,0.2-0.4,0.4-0.6,0.6c2.3,2.5,3.5,5.8,3.5,10V313.4z M198.4,285.4h3.6c4.5,0,6.9-2.3,6.9-7.7
					s-1.2-7.7-5.4-7.7h-5.1V285.4z"/>
				<path class="st1" d="M248.4,313.4c0,1.6-1.3,2.9-2.9,2.9h-2.3c-1.6,0-2.9-1.3-2.9-2.9v-13.5c0-4-2.3-6.3-6.2-6.3h-3.6v19.8
					c0,1.6-1.3,2.9-2.8,2.9h-2.3c-1.6,0-2.9-1.3-2.9-2.9v-48.6c0-1.6,1.3-2.9,2.9-2.9h10.2c9.9,0,13.4,5,13.4,15.8
					c0,5-0.9,9-3.4,11.5c-0.2,0.2-0.4,0.4-0.6,0.6c2.3,2.5,3.5,5.8,3.5,10V313.4z M230.5,285.4h3.6c4.5,0,6.9-2.3,6.9-7.7
					s-1.2-7.7-5.4-7.7h-5.1V285.4z"/>
				<path class="st1" d="M254.6,277.7c0-10.2,4.4-15.7,13.2-15.7c8.9,0,13.2,5.5,13.2,15.7v22.8c0,6.4-1.7,10.1-4.2,12.6
					c-2.7,2.6-6.1,3.2-9,3.2c-2.9,0-6.3-0.6-9-3.2c-2.5-2.5-4.3-6.2-4.3-12.6V277.7z M262.6,300.5c0,5.3,1.7,7.8,5.2,7.8
					c3.4,0,5.2-2.3,5.2-7.8v-22.8c0-5.4-1.7-7.7-5.2-7.7c-3.6,0-5.2,2.5-5.2,7.7V300.5z"/>
				<path class="st1" d="M313.3,313.4c0,1.6-1.3,2.9-2.9,2.9h-2.3c-1.6,0-2.9-1.3-2.9-2.9v-13.5c0-4-2.3-6.3-6.2-6.3h-3.6v19.8
					c0,1.6-1.3,2.9-2.8,2.9h-2.3c-1.6,0-2.9-1.3-2.9-2.9v-48.6c0-1.6,1.3-2.9,2.9-2.9h10.2c9.9,0,13.4,5,13.4,15.8
					c0,5-0.9,9-3.4,11.5c-0.2,0.2-0.4,0.4-0.6,0.6c2.3,2.5,3.5,5.8,3.5,10V313.4z M295.4,285.4h3.6c4.5,0,6.9-2.3,6.9-7.7
					s-1.2-7.7-5.4-7.7h-5.1V285.4z"/>
			</g>
		</g>
		<g id="Cuon">
			<g>
				<polygon class="st3" points="390.3,355.4 314.4,431.2 314.4,355.4 				"/>
			</g>
			<g>
				<path class="st1" d="M314.4,434.7c-0.5,0-0.9-0.1-1.4-0.3c-1.3-0.5-2.2-1.8-2.2-3.3v-75.8c0-2,1.6-3.6,3.6-3.6h75.8
					c1.4,0,2.7,0.9,3.3,2.2c0.5,1.3,0.2,2.9-0.8,3.9L317,433.7C316.3,434.4,315.4,434.7,314.4,434.7z M318,358.9v63.7l63.7-63.7H318
					z"/>
			</g>
		</g>
	</g>
</g>
<g>
</g>
<g>
</g>
<g>
</g>
<g>
</g>
<g>
</g>
<g>
</g>
<g>
</g>
<g>
</g>
<g>
</g>
<g>
</g>
<g>
</g>
<g>
</g>
<g>
</g>
<g>
</g>
<g>
</g>
</svg>
